<?xml version="1.0" encoding="UTF-8" standalone="no"?>
<!-- Created with Inkscape (http://www.inkscape.org/) -->

<svg
   version="1.1"
   id="svg1"
   width="336"
   height="172"
   viewBox="0 0 336 172"
   sodipodi:docname="knowledge_informed_idea_demo_v2.svg"
   inkscape:version="1.3.2 (091e20e, 2023-11-25)"
   xmlns:inkscape="http://www.inkscape.org/namespaces/inkscape"
   xmlns:sodipodi="http://sodipodi.sourceforge.net/DTD/sodipodi-0.dtd"
   xmlns="http://www.w3.org/2000/svg"
   xmlns:svg="http://www.w3.org/2000/svg">
  <defs
     id="defs1" />
  <sodipodi:namedview
     id="namedview1"
     pagecolor="#ffffff"
     bordercolor="#000000"
     borderopacity="0.25"
     inkscape:showpageshadow="2"
     inkscape:pageopacity="0.0"
     inkscape:pagecheckerboard="0"
     inkscape:deskcolor="#d1d1d1"
     inkscape:zoom="1.372093"
     inkscape:cx="168.35593"
     inkscape:cy="86"
     inkscape:window-width="1424"
     inkscape:window-height="817"
     inkscape:window-x="0"
     inkscape:window-y="38"
     inkscape:window-maximized="0"
     inkscape:current-layer="g1">
    <inkscape:page
       x="0"
       y="0"
       id="page1"
       width="336"
       height="172"
       margin="0"
       bleed="0" />
  </sodipodi:namedview>
  <g
     id="g1"
     inkscape:groupmode="layer"
     inkscape:label="">
    <path
       id="path1"
       d="m 0.039,51.91 h 74.496 v 55.125 H 0.039 Z"
       style="fill:#fed3c8;fill-opacity:1;fill-rule:nonzero;stroke:none"
       transform="scale(1.3333333)" />
    <path
       id="path2"
       d="M 177.406,51.91 H 252 v 55.125 h -74.594 z"
       style="fill:#d4e7f2;fill-opacity:1;fill-rule:nonzero;stroke:none"
       transform="scale(1.3333333)" />
    <path
       id="path3"
       d="m 74.535,51.91 h 102.852 v 55.125 H 74.535 Z"
       style="fill:#fef6c8;fill-opacity:1;fill-rule:nonzero;stroke:none"
       transform="scale(1.3333333)" />
    <path
       id="path4"
       d="m 85.815,67.434 h 31.928 V 91.493 H 85.815 Z"
       style="fill:#cde2f9;fill-opacity:1;fill-rule:nonzero;stroke:#043971;stroke-width:1.42561;stroke-linecap:round;stroke-linejoin:round;stroke-miterlimit:4;stroke-dasharray:none;stroke-opacity:1"
       transform="scale(1.3255813,1.3333333)" />
    <path
       id="path5"
       d="m 101.055,76.039 c 0,0 0,-0.109 -0.125,-0.109 -0.235,0 -0.953,0.078 -1.219,0.109 -0.078,0 -0.188,0.016 -0.188,0.191 0,0.125 0.094,0.125 0.235,0.125 0.484,0 0.5,0.063 0.5,0.172 l -0.031,0.203 -1.438,5.77 c -0.047,0.141 -0.047,0.156 -0.047,0.219 0,0.238 0.203,0.285 0.297,0.285 0.156,0 0.313,-0.125 0.359,-0.27 l 0.188,-0.754 0.219,-0.894 c 0.062,-0.238 0.125,-0.457 0.172,-0.676 0.015,-0.062 0.109,-0.394 0.109,-0.457 0.031,-0.094 0.344,-0.644 0.687,-0.926 0.219,-0.16 0.516,-0.347 0.954,-0.347 0.421,0 0.531,0.347 0.531,0.707 0,0.535 -0.375,1.636 -0.61,2.25 -0.078,0.218 -0.14,0.343 -0.14,0.547 0,0.472 0.359,0.82 0.828,0.82 0.937,0 1.297,-1.461 1.297,-1.539 0,-0.113 -0.078,-0.113 -0.11,-0.113 -0.109,0 -0.109,0.031 -0.156,0.191 -0.14,0.531 -0.469,1.238 -1.015,1.238 -0.172,0 -0.235,-0.093 -0.235,-0.328 0,-0.25 0.078,-0.488 0.172,-0.707 0.156,-0.441 0.609,-1.637 0.609,-2.215 0,-0.644 -0.39,-1.07 -1.14,-1.07 -0.625,0 -1.11,0.316 -1.485,0.769 z"
       style="fill:#000000;fill-opacity:1;fill-rule:nonzero;stroke:none"
       transform="scale(1.3333333)" />
    <path
       id="path6"
       d="M 6.471,73.906 H 23.413"
       style="fill:none;stroke:#043971;stroke-width:1.42561;stroke-linecap:round;stroke-linejoin:round;stroke-miterlimit:4;stroke-dasharray:none;stroke-opacity:1"
       transform="scale(1.3255813,1.3333333)" />
    <path
       id="path7"
       d="m 27.527,73.906 -6.168,3.571 v -7.133 z"
       style="fill:#043971;fill-opacity:1;fill-rule:evenodd;stroke:#043971;stroke-width:0.950406;stroke-linecap:butt;stroke-linejoin:miter;stroke-miterlimit:4;stroke-dasharray:none;stroke-opacity:1"
       transform="scale(1.3255813,1.3333333)" />
    <path
       id="path8"
       d="M 6.369,86.316 H 23.311"
       style="fill:none;stroke:#043971;stroke-width:1.42561;stroke-linecap:round;stroke-linejoin:round;stroke-miterlimit:4;stroke-dasharray:none;stroke-opacity:1"
       transform="scale(1.3255813,1.3333333)" />
    <path
       id="path9"
       d="m 27.421,86.316 -6.165,3.563 V 82.75 Z"
       style="fill:#043971;fill-opacity:1;fill-rule:evenodd;stroke:#043971;stroke-width:0.950406;stroke-linecap:butt;stroke-linejoin:miter;stroke-miterlimit:4;stroke-dasharray:none;stroke-opacity:1"
       transform="scale(1.3255813,1.3333333)" />
    <path
       id="path10"
       d="M 57.015,79.465 H 79.438"
       style="fill:none;stroke:#043971;stroke-width:1.42561;stroke-linecap:round;stroke-linejoin:round;stroke-miterlimit:4;stroke-dasharray:none;stroke-opacity:1"
       transform="scale(1.3255813,1.3333333)" />
    <path
       id="path11"
       d="m 83.552,79.465 -6.165,3.566 v -7.133 z"
       style="fill:#043971;fill-opacity:1;fill-rule:evenodd;stroke:#043971;stroke-width:0.950406;stroke-linecap:butt;stroke-linejoin:miter;stroke-miterlimit:4;stroke-dasharray:none;stroke-opacity:1"
       transform="scale(1.3255813,1.3333333)" />
    <path
       id="path12"
       d="m 67.832,80.402 v 20.012 H 31.763 L 51.986,61.613"
       style="fill:none;stroke:#043971;stroke-width:1.4256;stroke-linecap:round;stroke-linejoin:round;stroke-miterlimit:4;stroke-dasharray:none;stroke-opacity:1"
       transform="scale(1.3255813,1.3333333)" />
    <path
       id="path13"
       d="m 53.884,57.961 0.31,7.117 -6.318,-3.293 z"
       style="fill:#043971;fill-opacity:1;fill-rule:evenodd;stroke:#043971;stroke-width:0.950398;stroke-linecap:butt;stroke-linejoin:miter;stroke-miterlimit:4;stroke-dasharray:none;stroke-opacity:1"
       transform="scale(1.3255813,1.3333333)" />
    <path
       id="path14"
       d="m 118.67,79.465 h 16.121"
       style="fill:none;stroke:#043971;stroke-width:1.42561;stroke-linecap:round;stroke-linejoin:round;stroke-miterlimit:4;stroke-dasharray:none;stroke-opacity:1"
       transform="scale(1.3255813,1.3333333)" />
    <path
       id="path15"
       d="m 138.905,79.465 -6.165,3.566 v -7.133 z"
       style="fill:#043971;fill-opacity:1;fill-rule:evenodd;stroke:#043971;stroke-width:0.950406;stroke-linecap:butt;stroke-linejoin:miter;stroke-miterlimit:4;stroke-dasharray:none;stroke-opacity:1"
       transform="scale(1.3255813,1.3333333)" />
    <path
       id="path16"
       d="M 29.005,67.422 H 56.913 V 91.508 H 29.005 Z"
       style="fill:#cde2f9;fill-opacity:1;fill-rule:nonzero;stroke:#043971;stroke-width:1.39622;stroke-linecap:round;stroke-linejoin:round;stroke-miterlimit:4;stroke-dasharray:none;stroke-opacity:1"
       transform="scale(1.3255813,1.3333333)" />
    <path
       id="path17"
       d="m 37.676,72.121 -1.344,1.371 0.172,0.172 1.172,-1.023 1.14,1.023 0.172,-0.172 z"
       style="fill:#000000;fill-opacity:1;fill-rule:nonzero;stroke:none"
       transform="scale(1.3333333)" />
    <path
       id="path18"
       d="m 36.684,77.723 h 0.859 c 0.203,0 0.297,0 0.297,-0.203 0,-0.114 -0.094,-0.114 -0.266,-0.114 h -0.828 l 0.203,-1.144 c 0.047,-0.207 0.188,-0.914 0.25,-1.039 0.078,-0.188 0.25,-0.344 0.469,-0.344 0.031,0 0.297,0 0.484,0.187 -0.437,0.032 -0.547,0.395 -0.547,0.536 0,0.234 0.188,0.359 0.375,0.359 0.266,0 0.547,-0.234 0.547,-0.613 0,-0.453 -0.453,-0.692 -0.859,-0.692 -0.344,0 -0.969,0.188 -1.266,1.18 -0.062,0.203 -0.093,0.312 -0.328,1.57 h -0.687 c -0.203,0 -0.313,0 -0.313,0.192 0,0.125 0.094,0.125 0.281,0.125 h 0.657 l -0.735,3.961 c -0.187,0.972 -0.359,1.882 -0.875,1.882 -0.047,0 -0.281,0 -0.484,-0.187 0.469,-0.031 0.562,-0.391 0.562,-0.531 0,-0.239 -0.187,-0.364 -0.375,-0.364 -0.265,0 -0.546,0.235 -0.546,0.614 0,0.437 0.437,0.691 0.843,0.691 0.547,0 0.953,-0.598 1.125,-0.977 0.328,-0.628 0.547,-1.835 0.563,-1.914 z"
       style="fill:#000000;fill-opacity:1;fill-rule:nonzero;stroke:none"
       transform="scale(1.3333333)" />
    <path
       id="path19"
       d="m 40.938,82.668 c -0.047,0.141 -0.11,0.379 -0.11,0.41 0,0.156 0.125,0.219 0.234,0.219 0.141,0 0.25,-0.078 0.282,-0.141 0.031,-0.062 0.094,-0.301 0.125,-0.441 0.031,-0.125 0.109,-0.453 0.156,-0.629 0.031,-0.156 0.078,-0.313 0.109,-0.469 0.078,-0.301 0.078,-0.316 0.219,-0.535 0.219,-0.348 0.578,-0.738 1.109,-0.738 0.391,0 0.422,0.312 0.422,0.488 0,0.422 -0.296,1.191 -0.422,1.492 -0.062,0.203 -0.093,0.266 -0.093,0.375 0,0.379 0.297,0.598 0.656,0.598 0.703,0 1,-0.957 1,-1.07 0,-0.094 -0.078,-0.094 -0.109,-0.094 -0.094,0 -0.094,0.047 -0.125,0.129 -0.157,0.562 -0.469,0.847 -0.735,0.847 -0.156,0 -0.187,-0.093 -0.187,-0.254 0,-0.156 0.047,-0.25 0.172,-0.562 C 43.719,82.07 44,81.332 44,80.941 c 0,-0.109 0,-0.41 -0.25,-0.613 -0.125,-0.078 -0.328,-0.191 -0.656,-0.191 -0.625,0 -1,0.425 -1.235,0.707 -0.047,-0.594 -0.547,-0.707 -0.906,-0.707 -0.578,0 -0.969,0.363 -1.172,0.644 -0.047,-0.484 -0.453,-0.644 -0.75,-0.644 -0.297,0 -0.453,0.222 -0.547,0.379 -0.156,0.265 -0.25,0.66 -0.25,0.707 0,0.078 0.094,0.078 0.125,0.078 0.094,0 0.094,-0.016 0.141,-0.203 0.109,-0.41 0.25,-0.754 0.516,-0.754 0.187,0 0.234,0.156 0.234,0.344 0,0.124 -0.062,0.394 -0.125,0.582 -0.047,0.191 -0.109,0.472 -0.141,0.628 l -0.234,0.895 c -0.016,0.094 -0.062,0.269 -0.062,0.285 0,0.156 0.124,0.219 0.234,0.219 0.125,0 0.234,-0.078 0.281,-0.141 0.031,-0.062 0.078,-0.301 0.125,-0.441 0.031,-0.125 0.11,-0.453 0.141,-0.629 0.047,-0.156 0.093,-0.313 0.125,-0.469 0.078,-0.285 0.094,-0.347 0.297,-0.629 0.187,-0.285 0.515,-0.644 1.047,-0.644 0.39,0 0.406,0.359 0.406,0.488 0,0.172 -0.016,0.266 -0.125,0.656 z"
       style="fill:#000000;fill-opacity:1;fill-rule:nonzero;stroke:none"
       transform="scale(1.3333333)" />
    <path
       id="path20"
       d="m 47.242,78.852 c 0,-0.114 -0.094,-0.27 -0.281,-0.27 -0.188,0 -0.391,0.188 -0.391,0.395 0,0.109 0.078,0.265 0.282,0.265 0.187,0 0.39,-0.203 0.39,-0.39 z m -1.422,3.566 c -0.031,0.094 -0.062,0.172 -0.062,0.297 0,0.332 0.265,0.582 0.656,0.582 0.688,0 1,-0.957 1,-1.07 0,-0.094 -0.094,-0.094 -0.109,-0.094 -0.094,0 -0.11,0.047 -0.141,0.129 -0.156,0.562 -0.453,0.847 -0.734,0.847 -0.141,0 -0.172,-0.093 -0.172,-0.254 0,-0.156 0.047,-0.281 0.109,-0.437 0.078,-0.191 0.156,-0.379 0.219,-0.566 0.062,-0.172 0.328,-0.801 0.344,-0.895 0.031,-0.062 0.047,-0.145 0.047,-0.223 0,-0.328 -0.282,-0.597 -0.657,-0.597 -0.703,0 -1.015,0.961 -1.015,1.086 0,0.078 0.093,0.078 0.125,0.078 0.093,0 0.093,-0.031 0.125,-0.11 0.172,-0.597 0.484,-0.847 0.734,-0.847 0.109,0 0.172,0.047 0.172,0.234 0,0.172 -0.031,0.266 -0.203,0.707 z"
       style="fill:#000000;fill-opacity:1;fill-rule:nonzero;stroke:none"
       transform="scale(1.3333333)" />
    <path
       id="path21"
       d="m 49.531,82.496 c -0.062,0.234 -0.297,0.613 -0.656,0.613 -0.016,0 -0.234,0 -0.375,-0.093 0.281,-0.094 0.312,-0.348 0.312,-0.395 0,-0.156 -0.124,-0.25 -0.281,-0.25 -0.203,0 -0.406,0.156 -0.406,0.422 0,0.348 0.391,0.504 0.734,0.504 0.329,0 0.61,-0.188 0.782,-0.488 0.171,0.363 0.547,0.488 0.828,0.488 0.812,0 1.234,-0.863 1.234,-1.07 0,-0.094 -0.094,-0.094 -0.109,-0.094 -0.11,0 -0.11,0.047 -0.141,0.129 -0.141,0.484 -0.562,0.847 -0.953,0.847 -0.281,0 -0.422,-0.187 -0.422,-0.457 0,-0.187 0.172,-0.816 0.36,-1.601 0.14,-0.535 0.453,-0.707 0.687,-0.707 0.016,0 0.219,0 0.375,0.094 -0.219,0.062 -0.312,0.265 -0.312,0.394 0,0.141 0.124,0.25 0.281,0.25 0.156,0 0.39,-0.125 0.39,-0.426 0,-0.39 -0.453,-0.519 -0.718,-0.519 -0.36,0 -0.641,0.238 -0.782,0.504 -0.125,-0.282 -0.453,-0.504 -0.843,-0.504 -0.782,0 -1.219,0.867 -1.219,1.086 0,0.078 0.094,0.078 0.109,0.078 0.094,0 0.094,-0.016 0.141,-0.11 0.172,-0.55 0.609,-0.847 0.953,-0.847 0.234,0 0.422,0.125 0.422,0.453 0,0.144 -0.094,0.488 -0.156,0.742 z"
       style="fill:#000000;fill-opacity:1;fill-rule:nonzero;stroke:none"
       transform="scale(1.3333333)" />
    <path
       id="path22"
       d="M 4.306,1.012 H 81.418 V 36.563 H 4.306 Z"
       style="fill:none;stroke:#000000;stroke-width:1.42579;stroke-linecap:round;stroke-linejoin:round;stroke-miterlimit:4;stroke-dasharray:none;stroke-opacity:1"
       transform="scale(1.3255813,1.3333333)" />
    <text
       id="text22"
       xml:space="preserve"
       transform="matrix(1.3333333,0,0,1.3411305,29.170525,20.304491)"><tspan
         style="font-variant:normal;font-weight:normal;font-size:8.9964px;font-family:'Times New Roman';writing-mode:lr-tb;fill:#000000;fill-opacity:1;fill-rule:nonzero;stroke:none"
         x="0 6.0005293 12.497442 17.167944 19.417046 22.412916 24.662016 32.661259 38.663368"
         y="0"
         sodipodi:role="line"
         id="tspan22">BVP - MA </tspan><tspan
         style="font-variant:normal;font-weight:normal;font-size:8.9964px;font-family:'Times New Roman';writing-mode:lr-tb;fill:#000000;fill-opacity:1;fill-rule:nonzero;stroke:none"
         x="-12.396384 -7.3930144 -2.8948138 1.6033866 4.5992584 8.5922899 12.585321 14.834422 19.837791 23.830822 28.329023 32.322056 35.317928 39.310959 41.810448 44.309937 48.808136 53.306335"
         y="11.245474"
         sodipodi:role="line"
         id="tspan23">Source Separation </tspan></text>
    <path
       id="path23"
       d="m 104.926,0.938 h 62.606 v 35.703 h -62.606 z"
       style="fill:none;stroke:#000000;stroke-width:1.42579;stroke-linecap:round;stroke-linejoin:round;stroke-miterlimit:4;stroke-dasharray:none;stroke-opacity:1"
       transform="scale(1.3255813,1.3333333)" />
    <text
       id="text23"
       xml:space="preserve"
       transform="matrix(1.3333333,0,0,1.3411305,145.2384,20.405711)"><tspan
         style="font-variant:normal;font-weight:normal;font-size:9px;font-family:'Times New Roman';writing-mode:lr-tb;fill:#000000;fill-opacity:1;fill-rule:nonzero;stroke:none"
         x="0 6.4995127 10.999513 13.996584 17.991213 21.985842 26.485844 30.985844 34.980473 37.977543 41.972172 46.472172 48.97266 52.967293"
         y="0"
         sodipodi:role="line"
         id="tspan24">Unrecoverable </tspan><tspan
         style="font-variant:normal;font-weight:normal;font-size:9px;font-family:'Times New Roman';writing-mode:lr-tb;fill:#000000;fill-opacity:1;fill-rule:nonzero;stroke:none"
         x="2.2741742 8.2771044 14.776617 19.448988 21.69899 25.201431 29.19606 36.196548 40.696548 43.197037 47.191666"
         y="11.250001"
         sodipodi:role="line"
         id="tspan25">BVP samples</tspan></text>
    <path
       id="path25"
       d="m 198.27,1.039 h 52.599 V 36.535 H 198.27 Z"
       style="fill:none;stroke:#000000;stroke-width:1.42579;stroke-linecap:round;stroke-linejoin:round;stroke-miterlimit:4;stroke-dasharray:none;stroke-opacity:1"
       transform="scale(1.3255813,1.3333333)" />
    <text
       id="text25"
       xml:space="preserve"
       transform="matrix(1.3333333,0,0,1.3411305,285.9465,20.199433)"><tspan
         style="font-variant:normal;font-weight:normal;font-size:9px;font-family:'Times New Roman';writing-mode:lr-tb;fill:#000000;fill-opacity:1;fill-rule:nonzero;stroke:none"
         x="0 6.0029302 12.502442"
         y="0"
         sodipodi:role="line"
         id="tspan26">BVP</tspan><tspan
         style="font-variant:normal;font-weight:normal;font-size:9px;font-family:'Times New Roman';writing-mode:lr-tb;fill:#000000;fill-opacity:1;fill-rule:nonzero;stroke:none"
         x="-13.746098 -5.7436552 -1.2436547 1.7534159 6.2534165 10.753417 15.253417 17.753906 22.253906 26.753906"
         y="11.250001"
         sodipodi:role="line"
         id="tspan27">Morphology</tspan></text>
    <path
       id="path27"
       d="M 42.862,36.562 C 66.995,44.227 82.774,49.07 70.39,62.77"
       style="fill:none;stroke:#000000;stroke-width:1.42561;stroke-linecap:round;stroke-linejoin:round;stroke-miterlimit:4;stroke-dasharray:none;stroke-opacity:1"
       transform="scale(1.3255813,1.3333333)" />
    <path
       id="path28"
       d="m 67.631,65.816 1.494,-6.961 5.284,4.782 z"
       style="fill:#000000;fill-opacity:1;fill-rule:evenodd;stroke:#000000;stroke-width:0.950406;stroke-linecap:butt;stroke-linejoin:miter;stroke-miterlimit:4;stroke-dasharray:none;stroke-opacity:1"
       transform="scale(1.3255813,1.3333333)" />
    <path
       id="path29"
       d="m 118.454,37.273 c 0,12.395 15.163,24.133 16.542,25.657"
       style="fill:none;stroke:#000000;stroke-width:1.42561;stroke-linecap:round;stroke-linejoin:round;stroke-miterlimit:4;stroke-dasharray:none;stroke-opacity:1"
       transform="scale(1.3255813,1.3333333)" />
    <path
       id="path30"
       d="m 137.754,65.977 -6.782,-2.184 5.289,-4.777 z"
       style="fill:#000000;fill-opacity:1;fill-rule:evenodd;stroke:#000000;stroke-width:0.950406;stroke-linecap:butt;stroke-linejoin:miter;stroke-miterlimit:4;stroke-dasharray:none;stroke-opacity:1"
       transform="scale(1.3255813,1.3333333)" />
    <path
       id="path31"
       d="m 224.567,36.535 c 11.693,8.098 20.962,15.375 11.139,23.996"
       style="fill:none;stroke:#000000;stroke-width:1.42561;stroke-linecap:round;stroke-linejoin:round;stroke-miterlimit:4;stroke-dasharray:none;stroke-opacity:1"
       transform="scale(1.3255813,1.3333333)" />
    <path
       id="path32"
       d="m 232.744,63.758 1.485,-6.926 5.257,4.754 z"
       style="fill:#000000;fill-opacity:1;fill-rule:evenodd;stroke:#000000;stroke-width:0.945049;stroke-linecap:butt;stroke-linejoin:miter;stroke-miterlimit:4;stroke-dasharray:none;stroke-opacity:1"
       transform="scale(1.3255813,1.3333333)" />
    <path
       id="path33"
       d="m 132.862,91.309 c 0.126,0 0.256,0 0.381,0 0.13,0 0.256,0 0.382,-0.004 0.129,0 0.255,0 0.385,0 0.125,0 0.255,0 0.381,0 0.125,0 0.255,-0.004 0.381,-0.004 0.129,0 0.255,0 0.381,0 0.13,-0.004 0.255,-0.004 0.385,-0.008 0.126,0 0.255,0 0.381,-0.004 0.126,0 0.256,-0.004 0.381,-0.008 0.13,-0.004 0.256,-0.004 0.381,-0.011 0.13,-0.004 0.256,-0.008 0.385,-0.012 0.126,-0.008 0.256,-0.012 0.382,-0.02 0.125,-0.008 0.255,-0.015 0.381,-0.023 0.129,-0.012 0.255,-0.024 0.381,-0.035 0.129,-0.012 0.255,-0.028 0.385,-0.043 0.126,-0.016 0.255,-0.035 0.381,-0.055 0.126,-0.023 0.255,-0.047 0.381,-0.07 0.13,-0.028 0.255,-0.059 0.381,-0.094 0.13,-0.031 0.256,-0.07 0.385,-0.113 0.126,-0.043 0.256,-0.094 0.381,-0.145 0.126,-0.051 0.256,-0.109 0.381,-0.176 0.13,-0.062 0.256,-0.132 0.386,-0.211 0.125,-0.078 0.251,-0.168 0.381,-0.261 0.125,-0.094 0.255,-0.2 0.381,-0.313 0.126,-0.109 0.255,-0.234 0.381,-0.371 0.13,-0.133 0.255,-0.273 0.381,-0.43 0.13,-0.16 0.255,-0.328 0.385,-0.507 0.126,-0.18 0.255,-0.375 0.381,-0.582 0.126,-0.207 0.256,-0.43 0.381,-0.664 0.13,-0.231 0.256,-0.485 0.385,-0.747 0.126,-0.261 0.252,-0.543 0.382,-0.832 0.125,-0.296 0.255,-0.601 0.381,-0.925 0.125,-0.321 0.255,-0.657 0.381,-1.004 0.129,-0.352 0.255,-0.711 0.381,-1.086 0.13,-0.371 0.255,-0.762 0.385,-1.156 0.126,-0.395 0.255,-0.805 0.381,-1.215 0.126,-0.414 0.255,-0.84 0.381,-1.262 0.13,-0.43 0.256,-0.859 0.385,-1.293 0.126,-0.437 0.252,-0.867 0.381,-1.305 0.126,-0.433 0.256,-0.863 0.381,-1.289 0.126,-0.429 0.256,-0.847 0.382,-1.258 0.129,-0.41 0.255,-0.812 0.385,-1.199 0.125,-0.386 0.251,-0.762 0.381,-1.113 0.125,-0.359 0.255,-0.695 0.381,-1.012 0.126,-0.316 0.255,-0.609 0.381,-0.879 0.13,-0.269 0.255,-0.515 0.385,-0.73 0.126,-0.215 0.252,-0.406 0.381,-0.567 0.126,-0.156 0.256,-0.285 0.381,-0.382 0.13,-0.098 0.256,-0.161 0.381,-0.196 0.13,-0.031 0.256,-0.031 0.385,0 0.126,0.032 0.252,0.098 0.382,0.196 0.125,0.097 0.255,0.226 0.381,0.382 0.125,0.161 0.255,0.352 0.381,0.567 0.129,0.215 0.255,0.461 0.385,0.73 0.126,0.27 0.251,0.563 0.381,0.879 0.126,0.317 0.255,0.653 0.381,1.012 0.13,0.351 0.256,0.727 0.381,1.113 0.13,0.387 0.256,0.789 0.385,1.199 0.126,0.411 0.252,0.829 0.381,1.258 0.126,0.426 0.256,0.856 0.382,1.289 0.125,0.438 0.255,0.868 0.381,1.305 0.129,0.434 0.255,0.863 0.385,1.293 0.125,0.422 0.251,0.848 0.381,1.262 0.126,0.41 0.255,0.82 0.381,1.215 0.13,0.394 0.255,0.785 0.381,1.156 0.13,0.375 0.255,0.734 0.385,1.086 0.126,0.347 0.252,0.683 0.381,1.004 0.126,0.324 0.256,0.629 0.381,0.925 0.13,0.289 0.256,0.571 0.382,0.832 0.129,0.262 0.255,0.516 0.385,0.747 0.125,0.234 0.251,0.457 0.381,0.664 0.125,0.207 0.255,0.402 0.381,0.582 0.129,0.179 0.255,0.347 0.381,0.507 0.13,0.157 0.255,0.297 0.385,0.43 0.126,0.137 0.251,0.262 0.381,0.371 0.126,0.113 0.255,0.219 0.381,0.313 0.13,0.093 0.256,0.183 0.381,0.261 0.13,0.079 0.256,0.149 0.385,0.211 0.126,0.067 0.252,0.125 0.382,0.176 0.125,0.055 0.255,0.102 0.381,0.145 0.129,0.043 0.255,0.082 0.381,0.113 0.129,0.035 0.255,0.066 0.385,0.094 0.126,0.023 0.251,0.047 0.381,0.07 0.126,0.02 0.255,0.039 0.381,0.055 0.13,0.015 0.255,0.031 0.381,0.043 0.13,0.011 0.256,0.023 0.385,0.035 0.126,0.008 0.252,0.015 0.381,0.023 0.126,0.008 0.256,0.012 0.381,0.02 0.13,0.004 0.256,0.008 0.382,0.012 0.129,0.007 0.255,0.007 0.385,0.011 0.125,0.004 0.251,0.008 0.381,0.008 0.125,0.004 0.255,0.004 0.381,0.004 0.13,0.004 0.255,0.004 0.381,0.008 0.13,0 0.255,0 0.385,0 0.126,0 0.255,0.004 0.381,0.004 0.126,0 0.256,0 0.381,0 0.13,0 0.256,0 0.381,0 0.13,0.004 0.256,0.004 0.385,0.004 0.126,0 0.252,0 0.382,0"
       style="fill:#cde2f9;fill-opacity:1;fill-rule:nonzero;stroke:#043971;stroke-width:1.12995;stroke-linecap:round;stroke-linejoin:round;stroke-miterlimit:4;stroke-dasharray:none;stroke-opacity:1"
       transform="scale(1.3255813,1.3333333)" />
    <path
       id="path34"
       d="M 151.777,62.176 V 91.27"
       style="fill:none;stroke:#043971;stroke-width:0.805586;stroke-linecap:round;stroke-linejoin:round;stroke-miterlimit:4;stroke-dasharray:0.805586, 1.61118;stroke-dashoffset:0;stroke-opacity:1"
       transform="scale(1.3255813,1.3333333)" />
    <path
       id="path35"
       d="m 151.777,59.617 1.831,3.832 h -3.662 z"
       style="fill:#043971;fill-opacity:1;fill-rule:evenodd;stroke:#043971;stroke-width:0.537059;stroke-linecap:butt;stroke-linejoin:miter;stroke-miterlimit:4;stroke-dasharray:none;stroke-opacity:1"
       transform="scale(1.3255813,1.3333333)" />
    <text
       id="text35"
       xml:space="preserve"
       transform="matrix(1.3333333,0,0,1.3411305,6.8806453,96.684096)"><tspan
         style="font-variant:normal;font-weight:normal;font-size:7px;font-family:'Times New Roman';writing-mode:lr-tb;fill:#000000;fill-opacity:1;fill-rule:nonzero;stroke:none"
         x="0 3.8930652 7.7861304"
         y="0"
         sodipodi:role="line"
         id="tspan35">PPG</tspan><tspan
         style="font-variant:normal;font-weight:normal;font-size:7px;font-family:'Times New Roman';writing-mode:lr-tb;fill:#000000;fill-opacity:1;fill-rule:nonzero;stroke:none"
         x="0.061523471 5.1166978 9.7856417"
         y="20.156851"
         sodipodi:role="line"
         id="tspan36">ACC</tspan></text>
    <path
       id="path36"
       d="m 208.09,72.887 c 0.621,0 1.129,0.508 1.129,1.136 0,0.629 -0.508,1.137 -1.129,1.137 -0.625,0 -1.133,-0.508 -1.133,-1.137 0,-0.628 0.508,-1.136 1.133,-1.136 z m 0,13.129 c 0.621,0 1.129,0.511 1.129,1.14 0,0.629 -0.508,1.141 -1.129,1.141 -0.625,0 -1.133,-0.512 -1.133,-1.141 0,-0.629 0.508,-1.14 1.133,-1.14 z m 0,-6.43 c 0.621,0 1.129,0.508 1.129,1.137 0,0.629 -0.508,1.136 -1.129,1.136 -0.625,0 -1.133,-0.507 -1.133,-1.136 0,-0.629 0.508,-1.137 1.133,-1.137 z m -14.18,-9.781 c 1.887,0.633 4.516,1.027 7.438,1.027 2.918,0 5.547,-0.394 7.437,-1.027 1.656,-0.559 2.684,-1.231 2.684,-1.891 0,-0.66 -1.028,-1.332 -2.684,-1.891 -1.89,-0.636 -4.519,-1.023 -7.437,-1.023 -2.922,0 -5.551,0.387 -7.438,1.023 -3.519,1.18 -3.617,2.567 0,3.782 z m 17.563,13.429 c -0.594,0.411 -1.344,0.766 -2.235,1.067 -2.035,0.683 -4.824,1.101 -7.89,1.101 -3.067,0 -5.86,-0.418 -7.895,-1.101 -0.879,-0.297 -1.625,-0.649 -2.215,-1.051 v 4.332 c 0.133,0.621 1.129,1.234 2.668,1.754 1.891,0.637 4.52,1.031 7.442,1.031 2.918,0 5.547,-0.394 7.437,-1.031 1.145,-0.379 1.988,-0.824 2.399,-1.277 0.339,-0.371 0.289,-0.621 0.289,-1.063 z m -21.688,-15.32 c 0,-1.352 1.403,-2.5 3.668,-3.254 2.035,-0.687 4.828,-1.109 7.895,-1.109 3.066,0 5.855,0.422 7.89,1.109 2.063,0.688 3.41,1.699 3.633,2.899 0.027,0.074 0.043,0.156 0.043,0.238 V 87.75 c 0,1.383 -2.625,2.605 -3.676,2.957 -2.035,0.68 -4.824,1.105 -7.89,1.105 -3.067,0 -5.86,-0.425 -7.895,-1.105 -1.074,-0.359 -3.652,-1.543 -3.652,-2.957 v -0.465 c 0,-6.457 -0.016,-12.914 -0.016,-19.371 z m 1.453,13.266 c 0.133,0.613 1.129,1.234 2.668,1.75 1.891,0.632 4.52,1.027 7.442,1.027 2.918,0 5.547,-0.395 7.437,-1.027 1.656,-0.555 2.684,-1.231 2.684,-1.887 h 0.008 v -4.219 c -0.594,0.41 -1.348,0.77 -2.239,1.067 -2.035,0.683 -4.824,1.105 -7.89,1.105 -3.067,0 -5.86,-0.422 -7.895,-1.105 -0.879,-0.293 -1.625,-0.649 -2.215,-1.047 z m 0,-6.41 c 0.133,0.613 1.129,1.234 2.668,1.753 1.891,0.633 4.52,1.028 7.442,1.028 2.918,0 5.547,-0.395 7.437,-1.028 1.656,-0.558 2.684,-1.23 2.684,-1.89 h 0.008 v -4.528 c -0.594,0.411 -1.348,0.77 -2.239,1.067 -2.035,0.683 -4.824,1.105 -7.89,1.105 -3.067,0 -5.86,-0.422 -7.895,-1.105 -0.879,-0.293 -1.625,-0.649 -2.215,-1.047 z"
       style="fill:#043971;fill-opacity:1;fill-rule:nonzero;stroke:none"
       transform="scale(1.3333333)" />
    <path
       id="path37"
       d="m 219.188,74.668 v 6.023"
       style="fill:none;stroke:#043971;stroke-width:1.94399;stroke-linecap:round;stroke-linejoin:round;stroke-miterlimit:4;stroke-dasharray:none;stroke-opacity:1"
       transform="scale(1.3255813,1.3333333)" />
    <path
       id="path38"
       d="m 222.202,77.684 h -6.023"
       style="fill:none;stroke:#043971;stroke-width:1.94399;stroke-linecap:round;stroke-linejoin:round;stroke-miterlimit:4;stroke-dasharray:none;stroke-opacity:1"
       transform="scale(1.3255813,1.3333333)" />
    <path
       id="path39"
       d="m 225.298,65.977 v 6.019"
       style="fill:none;stroke:#043971;stroke-width:1.94399;stroke-linecap:round;stroke-linejoin:round;stroke-miterlimit:4;stroke-dasharray:none;stroke-opacity:1"
       transform="scale(1.3255813,1.3333333)" />
    <path
       id="path40"
       d="m 228.312,68.988 h -6.024"
       style="fill:none;stroke:#043971;stroke-width:1.94399;stroke-linecap:round;stroke-linejoin:round;stroke-miterlimit:4;stroke-dasharray:none;stroke-opacity:1"
       transform="scale(1.3255813,1.3333333)" />
    <path
       id="path41"
       d="m 228.304,78.148 v 6.02"
       style="fill:none;stroke:#043971;stroke-width:1.94399;stroke-linecap:round;stroke-linejoin:round;stroke-miterlimit:4;stroke-dasharray:none;stroke-opacity:1"
       transform="scale(1.3255813,1.3333333)" />
    <path
       id="path42"
       d="M 231.314,81.16 H 225.29"
       style="fill:none;stroke:#043971;stroke-width:1.94399;stroke-linecap:round;stroke-linejoin:round;stroke-miterlimit:4;stroke-dasharray:none;stroke-opacity:1"
       transform="scale(1.3255813,1.3333333)" />
    <path
       id="path43"
       d="m 154.032,37.273 c 8.809,6.637 35.727,-1.843 40.038,20.317"
       style="fill:none;stroke:#000000;stroke-width:1.42561;stroke-linecap:round;stroke-linejoin:round;stroke-miterlimit:4;stroke-dasharray:none;stroke-opacity:1"
       transform="scale(1.3255813,1.3333333)" />
    <path
       id="path44"
       d="m 195.193,61.547 -5.111,-4.961 6.856,-1.941 z"
       style="fill:#000000;fill-opacity:1;fill-rule:evenodd;stroke:#000000;stroke-width:0.950406;stroke-linecap:butt;stroke-linejoin:miter;stroke-miterlimit:4;stroke-dasharray:none;stroke-opacity:1"
       transform="scale(1.3255813,1.3333333)" />
    <path
       id="path45"
       d="m 189.08,70.48 c -10.436,-5.289 -11.567,-6 -22.506,3.641"
       style="fill:none;stroke:#043971;stroke-width:1.42561;stroke-linecap:butt;stroke-linejoin:round;stroke-miterlimit:4;stroke-dasharray:none;stroke-opacity:1"
       transform="scale(1.3255813,1.3333333)" />
    <path
       id="path46"
       d="m 164.256,76.156 1.705,-5.062 3.532,4.011 z"
       style="fill:#043971;fill-opacity:1;fill-rule:evenodd;stroke:#043971;stroke-width:0.712806;stroke-linecap:butt;stroke-linejoin:miter;stroke-miterlimit:4;stroke-dasharray:none;stroke-opacity:1"
       transform="scale(1.3255813,1.3333333)" />
    <path
       id="path47"
       d="m 189.158,82.652 c -6.117,5.989 -9.634,5.129 -17.327,2.981"
       style="fill:none;stroke:#043971;stroke-width:1.42561;stroke-linecap:butt;stroke-linejoin:round;stroke-miterlimit:4;stroke-dasharray:none;stroke-opacity:1"
       transform="scale(1.3255813,1.3333333)" />
    <path
       id="path48"
       d="m 168.861,84.797 5.174,-1.328 -1.442,5.148 z"
       style="fill:#043971;fill-opacity:1;fill-rule:evenodd;stroke:#043971;stroke-width:0.712806;stroke-linecap:butt;stroke-linejoin:miter;stroke-miterlimit:4;stroke-dasharray:none;stroke-opacity:1"
       transform="scale(1.3255813,1.3333333)" />
    <text
       id="text48"
       xml:space="preserve"
       transform="matrix(1.3333333,0,0,1.3411305,272.43167,153.81457)"><tspan
         style="font-variant:normal;font-weight:normal;font-size:9px;font-family:'Times New Roman';writing-mode:lr-tb;fill:#000000;fill-opacity:1;fill-rule:nonzero;stroke:none"
         x="0 6.4995127 10.494142 12.994631 16.98926"
         y="0"
         sodipodi:role="line"
         id="tspan48">Data </tspan><tspan
         style="font-variant:normal;font-weight:normal;font-size:9px;font-family:'Times New Roman';writing-mode:lr-tb;fill:#000000;fill-opacity:1;fill-rule:nonzero;stroke:none"
         x="-16.125734 -9.6262217 -5.1262207 -0.62622035 6.3742685 10.368898 14.868898 17.369387 21.364016 23.864506 26.364994 30.864994"
         y="11.250001"
         sodipodi:role="line"
         id="tspan49">Augmentation</tspan><tspan
         style="font-variant:normal;font-weight:normal;font-size:9px;font-family:'Times New Roman';writing-mode:lr-tb;fill:#000000;fill-opacity:1;fill-rule:nonzero;stroke:none"
         x="-100.27769 -95.272316 -92.275246 -87.775246 -83.275246 -79.280617 -74.780617 -72.280128 -69.77964 -67.279152 -63.776707 -61.276218 -58.77573 -54.781101"
         y="1.0546921"
         sodipodi:role="line"
         id="tspan50">Probabilistic </tspan><tspan
         style="font-variant:normal;font-weight:normal;font-size:9px;font-family:'Times New Roman';writing-mode:lr-tb;fill:#000000;fill-opacity:1;fill-rule:nonzero;stroke:none"
         x="-94.514259 -91.517189 -87.017189 -84.020119 -80.02549 -77.028419 -73.033783 -68.533783 -64.539154"
         y="12.304693"
         sodipodi:role="line"
         id="tspan51">Inference</tspan><tspan
         style="font-variant:normal;font-weight:normal;font-size:9px;font-family:'Times New Roman';writing-mode:lr-tb;fill:#000000;fill-opacity:1;fill-rule:nonzero;stroke:none"
         x="-182.93109 -176.43158 -171.93158 -169.43109 -166.9306 -159.93011 -155.93549 -153.435"
         y="0.14502601"
         sodipodi:role="line"
         id="tspan52">Optimal </tspan><tspan
         style="font-variant:normal;font-weight:normal;font-size:9px;font-family:'Times New Roman';writing-mode:lr-tb;fill:#000000;fill-opacity:1;fill-rule:nonzero;stroke:none"
         x="-195.42476 -189.9272 -187.42671 -182.92671 -178.93207 -174.93744 -171.94037 -169.69037 -164.685 -162.18451 -159.68402 -157.18353 -153.1889 -150.19183 -147.69135 -143.19135"
         y="11.395027"
         sodipodi:role="line"
         id="tspan53">Linear Filtering</tspan></text>
  </g>
</svg>
